<?xml version="1.0" encoding="utf-8"?>
<!-- Generator: Adobe Illustrator 27.5.0, SVG Export Plug-In . SVG Version: 6.00 Build 0)  -->
<svg version="1.1" id="Calque_1" xmlns="http://www.w3.org/2000/svg" xmlns:xlink="http://www.w3.org/1999/xlink" x="0px" y="0px"
	 viewBox="0 0 540 140" style="enable-background:new 0 0 540 140;" xml:space="preserve">
<style type="text/css">
	.st0{fill:#2E79F5;}
	.st1{fill:#1F2635;}
	.st2{enable-background:new    ;}
</style>
<g>
	<path class="st0" d="M120.6,66.6c0.2,2.2-2.5,3.5-4.1,1.9L95.3,47.3c-12.5-12.5-32.8-12.5-45.3,0L28.9,68.5
		c-1.6,1.6-4.2,0.3-4.1-1.9c0.8-12.1,6.3-24,16.3-32.8c18-15.8,45.3-15.8,63.2,0C114.3,42.6,119.8,54.5,120.6,66.6z"/>
	<path class="st0" d="M48.7,77.1v30c0,1.9-2.2,3.1-3.8,2c-2.2-1.5-4.2-3.3-6.2-5.2c-3.5-3.5-6.4-7.5-8.6-11.7
		c-0.5-0.9-0.3-2,0.5-2.8l14-14C46.1,73.9,48.7,75,48.7,77.1z"/>
	<path class="st0" d="M80.7,57.6v57.7c0,1.2-0.9,2.2-2.2,2.4c-3.9,0.5-7.8,0.5-11.7,0c-1.2-0.1-2.2-1.2-2.2-2.4V57.6
		c0-1,0.6-1.8,1.4-2.2c4.2-1.9,9-1.9,13.1,0C80.1,55.8,80.7,56.6,80.7,57.6z"/>
	<path class="st0" d="M114.8,89.4c0.7,0.7,0.9,1.9,0.5,2.8c-2.2,4.2-5.1,8.2-8.6,11.7c-1.9,1.9-4,3.7-6.2,5.2c-1.6,1.1-3.8,0-3.8-2
		v-30c0-2.1,2.6-3.2,4.1-1.7L114.8,89.4z"/>
</g>
<g>
	<path class="st1" d="M363.9,51.1c0.2,9.1-7.5,16.6-16.6,16.6h-9.1c-0.7,0-1.4,0.6-1.4,1.4V88c0,0.7-0.6,1.4-1.4,1.4h-2.8
		c-0.7,0-1.4-0.6-1.4-1.4V63.6c0-0.7,0.6-1.4,1.4-1.4h14.6c5.8,0,10.8-4.5,11.1-10.3c0.3-6.2-4.7-11.3-10.8-11.3h-14.9
		c-0.7,0-1.4-0.6-1.4-1.4v-2.7c0-0.7,0.6-1.4,1.4-1.4h14.9C356.5,35.2,363.7,42.3,363.9,51.1z"/>
	<path class="st1" d="M434.5,64l4.7,23.6c0.2,0.9-0.5,1.6-1.4,1.6h-2.6c-0.6,0-1.2-0.5-1.4-1.1l-4.1-20.2c-0.2-0.8-1-1.3-1.8-1
		c-1.5,0.5-3.1,0.7-4.8,0.7h-9.4c-0.7,0-1.4,0.6-1.4,1.4v18.9c0,0.7-0.6,1.4-1.4,1.4h-2.7c-0.7,0-1.4-0.6-1.4-1.4V63.6
		c0-0.7,0.6-1.4,1.4-1.4h14.6c5.8,0,10.8-4.5,11.1-10.3c0.3-6.2-4.7-11.3-10.8-11.3h-14.9c-0.7,0-1.4-0.6-1.4-1.4v-2.7
		c0-0.7,0.6-1.4,1.4-1.4H423c8.9,0,16.6,7.3,16.6,16.2c0,4.4-1.8,8.4-4.7,11.3C434.6,63.2,434.5,63.6,434.5,64z"/>
	<path class="st1" d="M394.7,89.3H392c-0.6,0-1.2-0.5-1.4-1.1l-8-39.6c-0.3-1.4-2.4-1.4-2.6,0l-8,39.6c-0.2,0.6-0.7,1.1-1.4,1.1H368
		c-0.9,0-1.5-0.8-1.4-1.6l10.3-51.3c0.2-0.6,0.7-1.1,1.4-1.1h5.9c0.6,0,1.2,0.5,1.4,1.1l10.3,51.3C396.2,88.5,395.5,89.3,394.7,89.3
		z"/>
	<path class="st1" d="M464.9,58l11.9,29.7c0.3,0.7-0.2,1.6-1,1.6h-4.3c-0.5,0-0.9-0.3-1-0.7l-8.8-21.9c-0.3-0.9-1.6-1-2.1-0.2
		l-3.6,6.3c-0.1,0.2-0.2,0.4-0.2,0.6v14.8c0,0.6-0.5,1.1-1.1,1.1h-3.1c-0.6,0-1.1-0.5-1.1-1.1V36.3c0-0.6,0.5-1.1,1.1-1.1h3.1
		c0.6,0,1.1,0.5,1.1,1.1v20.5c0,1.2,1.6,1.6,2.1,0.6l0,0l4-6.9l8.4-14.7c0.2-0.4,0.6-0.6,1-0.6h4.1c0.9,0,1.4,1,1,1.8l-11.2,20
		C464.8,57.3,464.8,57.7,464.9,58z"/>
	<path class="st1" d="M182.7,79.8v8.1c0,0.7-0.6,1.4-1.4,1.4h-14.9c-9,0-16.2-7.2-16.2-16.2V36.6c0-0.7,0.6-1.4,1.4-1.4h8.1
		c0.7,0,1.4,0.6,1.4,1.4v36.5c0,3,2.4,5.4,5.4,5.4h14.9C182.1,78.4,182.7,79.1,182.7,79.8z"/>
	<path class="st1" d="M223.2,36.6v36.1c0,9.1-7.4,16.8-16.6,16.6c-8.8-0.2-15.9-7.4-15.9-16.2V36.6c0-0.7,0.6-1.4,1.4-1.4h8.1
		c0.7,0,1.4,0.6,1.4,1.4v36.3c0,2.9,2.1,5.4,5,5.6c3.2,0.2,5.7-2.3,5.7-5.4V36.6c0-0.7,0.6-1.4,1.4-1.4h8.1
		C222.7,35.2,223.2,35.8,223.2,36.6z"/>
	<path class="st1" d="M266.5,51.4v36.5c0,0.7-0.6,1.4-1.4,1.4H257c-0.7,0-1.4-0.6-1.4-1.4V51.4c0-3-2.4-5.4-5.4-5.4h-4.1
		c-0.7,0-1.4,0.6-1.4,1.4V88c0,0.7-0.6,1.4-1.4,1.4h-8.1c-0.7,0-1.4-0.6-1.4-1.4V36.6c0-0.7,0.6-1.4,1.4-1.4h14.9
		C259.3,35.2,266.5,42.5,266.5,51.4z"/>
	<path class="st1" d="M308.2,89.3h-8c-0.6,0-1.2-0.5-1.4-1.1l-3.9-19.3c-0.3-1.4-2.4-1.4-2.6,0l-3.9,19.3c-0.2,0.6-0.7,1.1-1.4,1.1
		h-8c-0.9,0-1.5-0.8-1.4-1.6l10.3-51.3c0.2-0.6,0.7-1.1,1.4-1.1h8.6c0.6,0,1.2,0.5,1.4,1.1l10.3,51.3
		C309.7,88.5,309,89.3,308.2,89.3z"/>
</g>
<g class="st2">
	<path class="st1" d="M161.6,100.1v2.7h-3.7v11.3h-3.4v-11.3h-3.7v-2.7H161.6z"/>
	<path class="st1" d="M173.2,104.2c0.8,0.8,1.2,2,1.2,3.5v6.5H171v-6.1c0-0.7-0.2-1.3-0.6-1.7s-0.9-0.6-1.6-0.6s-1.2,0.2-1.6,0.6
		c-0.4,0.4-0.6,1-0.6,1.7v6.1h-3.4V99.4h3.4v5.1c0.3-0.5,0.8-0.9,1.4-1.2s1.3-0.4,2-0.4C171.4,102.9,172.5,103.3,173.2,104.2z"/>
	<path class="st1" d="M187.2,109.4h-7.7c0.1,0.7,0.3,1.2,0.7,1.6c0.4,0.4,0.9,0.5,1.5,0.5c0.9,0,1.4-0.4,1.8-1.1h3.6
		c-0.2,0.7-0.5,1.4-1,2c-0.5,0.6-1.1,1-1.8,1.4c-0.7,0.3-1.6,0.5-2.5,0.5c-1.1,0-2.1-0.2-2.9-0.7c-0.9-0.5-1.5-1.1-2-2
		c-0.5-0.9-0.7-1.9-0.7-3s0.2-2.2,0.7-3c0.5-0.9,1.1-1.5,2-2c0.9-0.5,1.8-0.7,2.9-0.7c1.1,0,2,0.2,2.9,0.7s1.5,1.1,2,1.9
		s0.7,1.8,0.7,2.9C187.3,108.7,187.3,109.1,187.2,109.4z M183.8,107.5c0-0.6-0.2-1.1-0.6-1.4c-0.4-0.3-0.9-0.5-1.5-0.5
		c-0.6,0-1.1,0.2-1.5,0.5c-0.4,0.3-0.6,0.8-0.7,1.4H183.8z"/>
	<path class="st1" d="M206.5,100.1l-5,14h-4.3l-5-14h3.6l3.5,10.6l3.5-10.6H206.5z"/>
	<path class="st1" d="M208.2,101.3c-0.4-0.4-0.6-0.8-0.6-1.3c0-0.5,0.2-1,0.6-1.3c0.4-0.4,0.9-0.5,1.5-0.5c0.6,0,1.1,0.2,1.5,0.5
		c0.4,0.4,0.6,0.8,0.6,1.3c0,0.5-0.2,1-0.6,1.3c-0.4,0.4-0.9,0.5-1.5,0.5C209.1,101.9,208.6,101.7,208.2,101.3z M211.4,103v11.2
		h-3.4V103H211.4z"/>
	<path class="st1" d="M215.8,113.8c-0.8-0.3-1.4-0.8-1.8-1.4s-0.7-1.2-0.7-2h3.4c0,0.4,0.2,0.7,0.5,0.9c0.3,0.2,0.7,0.4,1.2,0.4
		c0.4,0,0.8-0.1,1-0.2c0.2-0.2,0.4-0.4,0.4-0.6c0-0.3-0.2-0.6-0.5-0.7c-0.3-0.2-0.9-0.3-1.6-0.5c-0.8-0.2-1.5-0.4-2-0.6
		c-0.5-0.2-1-0.5-1.4-1s-0.6-1-0.6-1.8c0-0.6,0.2-1.2,0.5-1.8c0.4-0.5,0.9-0.9,1.6-1.2c0.7-0.3,1.5-0.5,2.5-0.5c1.4,0,2.5,0.3,3.3,1
		c0.8,0.7,1.3,1.6,1.4,2.8h-3.2c-0.1-0.4-0.2-0.7-0.5-0.9c-0.3-0.2-0.7-0.3-1.1-0.3c-0.4,0-0.7,0.1-0.9,0.2
		c-0.2,0.2-0.3,0.4-0.3,0.6c0,0.3,0.2,0.6,0.5,0.7s0.9,0.3,1.6,0.5c0.8,0.2,1.5,0.4,2,0.6s1,0.5,1.4,1c0.4,0.5,0.6,1.1,0.6,1.8
		c0,0.7-0.2,1.2-0.5,1.8c-0.4,0.5-0.9,0.9-1.6,1.2c-0.7,0.3-1.5,0.4-2.4,0.4C217.4,114.3,216.5,114.2,215.8,113.8z"/>
	<path class="st1" d="M236,103v11.2h-3.4v-1.5c-0.3,0.5-0.8,0.9-1.4,1.2c-0.6,0.3-1.2,0.5-2,0.5c-0.9,0-1.6-0.2-2.3-0.6
		c-0.7-0.4-1.2-0.9-1.5-1.6c-0.4-0.7-0.5-1.6-0.5-2.5V103h3.4v6.1c0,0.7,0.2,1.3,0.6,1.7c0.4,0.4,0.9,0.6,1.6,0.6
		c0.7,0,1.2-0.2,1.6-0.6c0.4-0.4,0.6-1,0.6-1.7V103H236z"/>
	<path class="st1" d="M238.5,105.6c0.4-0.9,1-1.5,1.8-2c0.7-0.5,1.6-0.7,2.5-0.7c0.8,0,1.5,0.2,2.1,0.5s1.1,0.7,1.4,1.3V103h3.4
		v11.2h-3.4v-1.6c-0.3,0.5-0.8,0.9-1.4,1.3c-0.6,0.3-1.3,0.5-2.1,0.5c-0.9,0-1.7-0.2-2.5-0.7c-0.7-0.5-1.3-1.1-1.8-2
		c-0.4-0.9-0.6-1.9-0.6-3S238,106.4,238.5,105.6z M245.5,106.6c-0.5-0.5-1-0.7-1.7-0.7s-1.3,0.2-1.7,0.7c-0.5,0.5-0.7,1.2-0.7,2
		s0.2,1.5,0.7,2c0.5,0.5,1,0.8,1.7,0.8s1.3-0.2,1.7-0.7c0.5-0.5,0.7-1.2,0.7-2S245.9,107.1,245.5,106.6z"/>
	<path class="st1" d="M255.5,99.4v14.8h-3.4V99.4H255.5z"/>
	<path class="st1" d="M264.5,113.8c-0.8-0.3-1.5-0.8-2-1.5s-0.7-1.4-0.8-2.4h3.6c0.1,0.5,0.2,0.9,0.5,1.2c0.3,0.3,0.7,0.4,1.2,0.4
		c0.5,0,0.9-0.1,1.2-0.4c0.3-0.2,0.4-0.6,0.4-1c0-0.3-0.1-0.6-0.4-0.9c-0.2-0.2-0.5-0.4-0.9-0.6c-0.3-0.1-0.8-0.3-1.4-0.5
		c-0.9-0.3-1.6-0.6-2.2-0.8c-0.6-0.3-1.1-0.7-1.5-1.2c-0.4-0.5-0.6-1.3-0.6-2.1c0-1.3,0.5-2.3,1.4-3.1s2.2-1.1,3.7-1.1
		c1.5,0,2.8,0.4,3.7,1.1c0.9,0.7,1.5,1.8,1.5,3.1h-3.7c0-0.5-0.2-0.8-0.5-1.1c-0.3-0.3-0.7-0.4-1.2-0.4c-0.4,0-0.7,0.1-1,0.3
		s-0.4,0.5-0.4,1c0,0.5,0.2,0.8,0.6,1.1c0.4,0.3,1.1,0.5,2,0.8c0.9,0.3,1.6,0.6,2.2,0.9c0.6,0.3,1.1,0.7,1.5,1.2s0.6,1.2,0.6,2.1
		c0,0.8-0.2,1.5-0.6,2.2s-1,1.2-1.8,1.6c-0.8,0.4-1.7,0.6-2.7,0.6C266.3,114.3,265.3,114.2,264.5,113.8z"/>
	<path class="st1" d="M274.5,105.6c0.5-0.9,1.1-1.5,2-2s1.8-0.7,2.9-0.7c1.4,0,2.6,0.4,3.5,1.1c0.9,0.7,1.6,1.8,1.9,3.1h-3.6
		c-0.3-0.9-0.9-1.3-1.8-1.3c-0.6,0-1.1,0.2-1.5,0.7c-0.4,0.5-0.6,1.2-0.6,2.1c0,0.9,0.2,1.6,0.6,2.1c0.4,0.5,0.9,0.7,1.5,0.7
		c0.9,0,1.5-0.4,1.8-1.3h3.6c-0.3,1.3-0.9,2.3-1.9,3.1c-0.9,0.7-2.1,1.1-3.5,1.1c-1.1,0-2.1-0.2-2.9-0.7s-1.5-1.1-2-2
		c-0.5-0.9-0.7-1.9-0.7-3S274.1,106.4,274.5,105.6z"/>
	<path class="st1" d="M291.5,103.4c0.6-0.4,1.3-0.5,2-0.5v3.6h-0.9c-0.9,0-1.5,0.2-1.9,0.5c-0.4,0.4-0.6,1-0.6,1.9v5.2h-3.4V103h3.4
		v1.9C290.4,104.3,290.9,103.8,291.5,103.4z"/>
	<path class="st1" d="M295.4,101.3c-0.4-0.4-0.6-0.8-0.6-1.3c0-0.5,0.2-1,0.6-1.3c0.4-0.4,0.9-0.5,1.5-0.5c0.6,0,1.1,0.2,1.5,0.5
		c0.4,0.4,0.6,0.8,0.6,1.3c0,0.5-0.2,1-0.6,1.3c-0.4,0.4-0.9,0.5-1.5,0.5C296.3,101.9,295.8,101.7,295.4,101.3z M298.6,103v11.2
		h-3.4V103H298.6z"/>
	<path class="st1" d="M305.9,103.3c0.6-0.3,1.3-0.5,2.1-0.5c0.9,0,1.8,0.2,2.5,0.7c0.7,0.5,1.3,1.1,1.8,2c0.4,0.9,0.7,1.9,0.7,3
		s-0.2,2.2-0.7,3c-0.4,0.9-1,1.5-1.8,2c-0.7,0.5-1.6,0.7-2.5,0.7c-0.8,0-1.5-0.2-2.1-0.5c-0.6-0.3-1.1-0.7-1.4-1.2v6.9h-3.4V103h3.4
		v1.6C304.8,104.1,305.3,103.7,305.9,103.3z M308.7,106.6c-0.5-0.5-1.1-0.7-1.8-0.7c-0.7,0-1.3,0.2-1.7,0.7c-0.5,0.5-0.7,1.2-0.7,2
		s0.2,1.5,0.7,2c0.5,0.5,1,0.7,1.7,0.7s1.3-0.2,1.7-0.8c0.5-0.5,0.7-1.2,0.7-2S309.1,107.1,308.7,106.6z"/>
	<path class="st1" d="M320.9,111.3v2.9h-1.7c-1.2,0-2.2-0.3-2.9-0.9c-0.7-0.6-1-1.6-1-3v-4.4h-1.4V103h1.4v-2.7h3.4v2.7h2.2v2.8
		h-2.2v4.5c0,0.3,0.1,0.6,0.2,0.7c0.2,0.1,0.4,0.2,0.8,0.2H320.9z"/>
	<path class="st1" d="M323,101.3c-0.4-0.4-0.6-0.8-0.6-1.3c0-0.5,0.2-1,0.6-1.3c0.4-0.4,0.9-0.5,1.5-0.5c0.6,0,1.1,0.2,1.5,0.5
		c0.4,0.4,0.6,0.8,0.6,1.3c0,0.5-0.2,1-0.6,1.3c-0.4,0.4-0.9,0.5-1.5,0.5C323.9,101.9,323.4,101.7,323,101.3z M326.2,103v11.2h-3.4
		V103H326.2z"/>
	<path class="st1" d="M338.6,104.2c0.8,0.8,1.2,2,1.2,3.5v6.5h-3.4v-6.1c0-0.7-0.2-1.3-0.6-1.7s-0.9-0.6-1.6-0.6s-1.2,0.2-1.6,0.6
		s-0.6,1-0.6,1.7v6.1h-3.4V103h3.4v1.5c0.3-0.5,0.8-0.9,1.4-1.2c0.6-0.3,1.2-0.4,2-0.4C336.8,102.9,337.8,103.3,338.6,104.2z"/>
	<path class="st1" d="M348.5,103.3c0.6,0.3,1,0.7,1.4,1.3V103h3.4v11.1c0,1-0.2,2-0.6,2.8c-0.4,0.8-1,1.5-1.9,2
		c-0.8,0.5-1.9,0.7-3.1,0.7c-1.7,0-3-0.4-4-1.2c-1-0.8-1.6-1.8-1.8-3.2h3.4c0.1,0.4,0.4,0.8,0.8,1c0.4,0.2,0.9,0.4,1.5,0.4
		c0.7,0,1.3-0.2,1.7-0.6c0.4-0.4,0.6-1.1,0.6-1.9v-1.6c-0.3,0.5-0.8,0.9-1.4,1.3c-0.6,0.3-1.3,0.5-2.1,0.5c-0.9,0-1.8-0.2-2.5-0.7
		s-1.3-1.1-1.8-2c-0.4-0.9-0.7-1.9-0.7-3s0.2-2.2,0.7-3c0.4-0.9,1-1.5,1.8-2s1.6-0.7,2.5-0.7C347.2,102.9,347.9,103,348.5,103.3z
		 M349.1,106.6c-0.5-0.5-1-0.7-1.7-0.7c-0.7,0-1.3,0.2-1.7,0.7c-0.5,0.5-0.7,1.2-0.7,2s0.2,1.5,0.7,2c0.5,0.5,1,0.8,1.7,0.8
		c0.7,0,1.3-0.2,1.7-0.7c0.5-0.5,0.7-1.2,0.7-2S349.6,107.1,349.1,106.6z"/>
	<path class="st1" d="M363.4,102.9v2.8h4.6v2.6h-4.6v3.1h5.2v2.7H360v-14h8.6v2.7H363.4z"/>
	<path class="st1" d="M370.8,105.6c0.4-0.9,1-1.5,1.8-2c0.7-0.5,1.6-0.7,2.5-0.7c0.7,0,1.4,0.2,2,0.5c0.6,0.3,1.1,0.7,1.4,1.2v-5.2
		h3.4v14.8h-3.4v-1.6c-0.3,0.5-0.8,1-1.4,1.3c-0.6,0.3-1.3,0.5-2.1,0.5c-0.9,0-1.8-0.2-2.5-0.7c-0.7-0.5-1.3-1.1-1.8-2
		c-0.4-0.9-0.6-1.9-0.6-3S370.3,106.4,370.8,105.6z M377.8,106.6c-0.5-0.5-1-0.7-1.7-0.7c-0.7,0-1.3,0.2-1.7,0.7
		c-0.5,0.5-0.7,1.2-0.7,2s0.2,1.5,0.7,2s1,0.8,1.7,0.8c0.7,0,1.3-0.2,1.7-0.7s0.7-1.2,0.7-2S378.2,107.1,377.8,106.6z"/>
	<path class="st1" d="M384.6,101.3c-0.4-0.4-0.6-0.8-0.6-1.3c0-0.5,0.2-1,0.6-1.3c0.4-0.4,0.9-0.5,1.5-0.5c0.6,0,1.1,0.2,1.5,0.5
		c0.4,0.4,0.6,0.8,0.6,1.3c0,0.5-0.2,1-0.6,1.3c-0.4,0.4-0.9,0.5-1.5,0.5C385.5,101.9,385,101.7,384.6,101.3z M387.8,103v11.2h-3.4
		V103H387.8z"/>
	<path class="st1" d="M396.5,111.3v2.9h-1.7c-1.2,0-2.2-0.3-2.9-0.9c-0.7-0.6-1-1.6-1-3v-4.4h-1.4V103h1.4v-2.7h3.4v2.7h2.2v2.8
		h-2.2v4.5c0,0.3,0.1,0.6,0.2,0.7c0.2,0.1,0.4,0.2,0.8,0.2H396.5z"/>
	<path class="st1" d="M400.5,113.6c-0.9-0.5-1.6-1.1-2.1-2c-0.5-0.9-0.8-1.9-0.8-3c0-1.1,0.3-2.2,0.8-3c0.5-0.9,1.2-1.5,2.1-2
		s1.9-0.7,3-0.7c1.1,0,2.1,0.2,3,0.7s1.6,1.1,2.1,2c0.5,0.9,0.8,1.9,0.8,3s-0.3,2.2-0.8,3c-0.5,0.9-1.2,1.5-2.1,2s-1.9,0.7-3,0.7
		C402.4,114.3,401.4,114.1,400.5,113.6z M405.1,110.7c0.5-0.5,0.7-1.2,0.7-2.1c0-0.9-0.2-1.6-0.7-2.1c-0.4-0.5-1-0.7-1.6-0.7
		c-0.7,0-1.2,0.2-1.7,0.7c-0.4,0.5-0.7,1.2-0.7,2.1c0,0.9,0.2,1.6,0.7,2.1c0.4,0.5,1,0.7,1.6,0.7S404.7,111.1,405.1,110.7z"/>
	<path class="st1" d="M416,103.4c0.6-0.4,1.3-0.5,2-0.5v3.6h-0.9c-0.9,0-1.5,0.2-1.9,0.5c-0.4,0.4-0.6,1-0.6,1.9v5.2h-3.4V103h3.4
		v1.9C414.9,104.3,415.4,103.8,416,103.4z"/>
</g>
</svg>
