<?xml version="1.0" encoding="utf-8"?>
<!-- Generator: Adobe Illustrator 27.5.0, SVG Export Plug-In . SVG Version: 6.00 Build 0)  -->
<svg version="1.1" id="Calque_1" xmlns="http://www.w3.org/2000/svg" xmlns:xlink="http://www.w3.org/1999/xlink" x="0px" y="0px"
	 viewBox="0 0 600 96" style="enable-background:new 0 0 600 96;" xml:space="preserve">
<style type="text/css">
	.st0{fill:#FFFFFF;}
	.st1{fill:#2E79F5;}
</style>
<g>
	<g>
		<path class="st0" d="M430.3,31c0.2,13.4-11.1,24.5-24.5,24.5h-13.5c-1.1,0-2,0.9-2,2v28c0,1.1-0.9,2-2,2h-4c-1.1,0-2-0.9-2-2v-36
			c0-1.1,0.9-2,2-2h21.6c8.6,0,16-6.6,16.4-15.2c0.4-9.2-6.9-16.8-16-16.8h-22c-1.1,0-2-0.9-2-2v-4c0-1.1,0.9-2,2-2h22
			C419.4,7.4,430,17.9,430.3,31z"/>
		<path class="st0" d="M534.8,50.1l7,35c0.2,1.2-0.7,2.4-2,2.4h-3.9c-1,0-1.8-0.7-2-1.6l-6-30c-0.2-1.2-1.4-1.9-2.6-1.5
			c-2.2,0.7-4.6,1.1-7.1,1.1h-14c-1.1,0-2,0.9-2,2v28c0,1.1-0.9,2-2,2h-4c-1.1,0-2-0.9-2-2v-36c0-1.1,0.9-2,2-2h21.6
			c8.6,0,16-6.6,16.4-15.2c0.4-9.2-6.9-16.8-16-16.8h-22c-1.1,0-2-0.9-2-2v-4c0-1.1,0.9-2,2-2h21.4c13.2,0,24.6,10.8,24.6,24.1
			c0,6.5-2.7,12.4-6.9,16.8C534.9,48.7,534.7,49.4,534.8,50.1z"/>
		<path class="st0" d="M475.8,87.4h-3.9c-1,0-1.8-0.7-2-1.6l-11.7-58.6c-0.4-2.1-3.5-2.1-3.9,0l-11.7,58.6c-0.2,0.9-1,1.6-2,1.6
			h-3.9c-1.3,0-2.2-1.2-2-2.4l15.2-76c0.2-0.9,1-1.6,2-1.6h8.7c1,0,1.8,0.7,2,1.6l15.2,76C478,86.3,477.1,87.4,475.8,87.4z"/>
		<path class="st0" d="M579.8,41.1l17.6,44c0.4,1.1-0.4,2.3-1.6,2.3h-6.3c-0.7,0-1.3-0.4-1.6-1.1l-13-32.4c-0.5-1.3-2.4-1.4-3.1-0.2
			l-5.3,9.3c-0.1,0.3-0.2,0.5-0.2,0.8v21.8c0,0.9-0.8,1.7-1.7,1.7H560c-0.9,0-1.7-0.8-1.7-1.7V9.1c0-0.9,0.8-1.7,1.7-1.7h4.6
			c0.9,0,1.7,0.8,1.7,1.7v30.4c0,1.7,2.3,2.4,3.2,0.8l0,0l5.9-10.3l12.4-21.7c0.3-0.5,0.9-0.9,1.5-0.9h6.1c1.3,0,2.1,1.4,1.5,2.5
			l-17,29.7C579.6,40.1,579.6,40.7,579.8,41.1z"/>
		<path class="st0" d="M162.3,73.4v12c0,1.1-0.9,2-2,2h-22c-13.3,0-24-10.7-24-24v-54c0-1.1,0.9-2,2-2h12c1.1,0,2,0.9,2,2v54
			c0,4.4,3.6,8,8,8h22C161.4,71.4,162.3,72.3,162.3,73.4z"/>
		<path class="st0" d="M222.3,9.4v53.5c0,13.4-11,24.8-24.5,24.5c-13-0.2-23.5-10.9-23.5-24v-54c0-1.1,0.9-2,2-2h12c1.1,0,2,0.9,2,2
			v53.7c0,4.3,3.2,8,7.5,8.3c4.7,0.3,8.5-3.4,8.5-8v-54c0-1.1,0.9-2,2-2h12C221.4,7.4,222.3,8.3,222.3,9.4z"/>
		<path class="st0" d="M286.3,31.4v54c0,1.1-0.9,2-2,2h-12c-1.1,0-2-0.9-2-2v-54c0-4.4-3.6-8-8-8h-6c-1.1,0-2,0.9-2,2v60
			c0,1.1-0.9,2-2,2h-12c-1.1,0-2-0.9-2-2v-76c0-1.1,0.9-2,2-2h22C275.5,7.4,286.3,18.2,286.3,31.4z"/>
		<path class="st0" d="M347.8,87.4h-11.9c-1,0-1.8-0.7-2-1.6l-5.7-28.6c-0.4-2.1-3.5-2.1-3.9,0l-5.7,28.6c-0.2,0.9-1,1.6-2,1.6
			h-11.9c-1.3,0-2.2-1.2-2-2.4l15.2-76c0.2-0.9,1-1.6,2-1.6h12.7c1,0,1.8,0.7,2,1.6l15.2,76C350,86.3,349.1,87.4,347.8,87.4z"/>
	</g>
</g>
<g>
	<path class="st1" d="M82.2,44.6c0.1,1.9-2.1,2.9-3.4,1.6L61.1,28.5c-10.4-10.4-27.3-10.4-37.7,0L5.8,46.2c-1.3,1.3-3.5,0.3-3.4-1.6
		c0.7-10.1,5.2-20,13.6-27.3c15-13.1,37.7-13.1,52.7,0C76.9,24.6,81.5,34.5,82.2,44.6z"/>
	<path class="st1" d="M22.3,53.4v25c0,1.6-1.8,2.6-3.2,1.6c-1.8-1.3-3.5-2.7-5.1-4.3c-2.9-2.9-5.3-6.2-7.2-9.7
		c-0.4-0.8-0.2-1.7,0.4-2.3L18.9,52C20.1,50.7,22.3,51.6,22.3,53.4z"/>
	<path class="st1" d="M48.9,37.1v48c0,1-0.8,1.9-1.8,2c-3.2,0.4-6.5,0.4-9.7,0c-1-0.1-1.8-1-1.8-2v-48c0-0.8,0.5-1.5,1.2-1.8
		c3.5-1.6,7.5-1.6,10.9,0C48.5,35.6,48.9,36.3,48.9,37.1z"/>
	<path class="st1" d="M77.3,63.6c0.6,0.6,0.8,1.5,0.4,2.3c-1.8,3.5-4.2,6.8-7.2,9.7c-1.6,1.6-3.3,3.1-5.1,4.3
		c-1.3,0.9-3.2,0-3.2-1.6v-25c0-1.8,2.2-2.7,3.4-1.4L77.3,63.6z"/>
</g>
</svg>
