<?xml version="1.0" encoding="utf-8"?>
<!-- Generator: Adobe Illustrator 27.5.0, SVG Export Plug-In . SVG Version: 6.00 Build 0)  -->
<svg version="1.1" id="Calque_1" xmlns="http://www.w3.org/2000/svg" xmlns:xlink="http://www.w3.org/1999/xlink" x="0px" y="0px"
	 viewBox="0 0 320 80" style="enable-background:new 0 0 320 80;" xml:space="preserve">
<style type="text/css">
	.st0{fill:#488B9E;}
</style>
<g>
	<path class="st0" d="M10.3,76.4c-4.7,0-5.3-1.2-3.1-5.4c2.6-5.1,5.1-10.3,7.6-15.5c2.3-4.6,4.7-9.2,7-13.8c1.2-2.5,2.5-4.9,3.7-7.4
		c0.4-0.8,0.8-1.6,1.3-2.3c1.7-2.2,3.2-2.1,4.6,0.2c0.5,0.8,0.8,1.7,1.3,2.4c0.5,0.6,1.3,1.4,2,1.5c0.5,0,1.2-1,1.6-1.7
		c1.9-4.1,3.8-8.3,5.7-12.5c2.1-4.6,4.1-9.3,6.3-13.9c0.5-1.1,1.2-2.2,2-3.2c1.2-1.6,2.4-1.5,3.3,0.3c1.5,2.9,3,5.8,4.4,8.7
		c3.5,7.5,6.9,15.1,10.3,22.6c2.8,6.1,5.4,12.3,8.2,18.4c2.6,5.7,5.2,11.3,7.9,16.9c1.5,3.2,0.7,4.8-3,4.8
		C69.4,76.4,22,76.4,10.3,76.4z M77.1,72.5c2-0.1,2.4-0.8,1.7-2.7c-0.4-1.2-1.1-2.4-1.6-3.6c-2-4.3-3.8-8.7-6-12.8
		c-1.1-2.1-2.7-3.9-4.2-5.8c-1.6-2-3.4-3.8-5-5.7c-2-2.3-4.1-4.6-6.1-6.9c-1.4-1.6-2.1-1.5-3.2,0.5c-0.4,0.8-0.7,1.8-1.1,2.7
		c-0.9,2.4-2.4,2.7-4.2,0.9c-0.5-0.6-1-1.2-1.5-1.8c-1.2-1.4-1.8-1.5-3.1-0.2c-0.9,0.9-1.9,1.9-2.7,2.9c-2.8,3.2-2.8,3.7-0.9,7.5
		c3.5,7,6.9,14.1,10.3,21.2c1.3,2.6,3,4.3,6.2,4.1C59.1,72.6,73.3,72.6,77.1,72.5z M34.1,72.7c3.4-0.1,6.9,0,10.3-0.3
		c1.8-0.1,2.2-0.9,1.5-2.5c-0.7-1.7-1.5-3.3-2.3-4.9c-1.4-2.6-2.6-5.3-4.3-7.7c-1.7-2.3-2.6-3.4-4.6,0c-1.2,2.1-3.4,1.9-4.8-0.1
		c-0.6-0.8-1.2-1.5-1.7-2.3c-0.9-1.3-2.2-1.7-3.4-0.8c-2.5,1.8-5.4,3.4-7.2,5.8c-2.3,3-3.8,6.6-5.5,10c-0.7,1.4-0.1,2.4,1.6,2.4
		C18.8,72.5,32.5,72.7,34.1,72.7z"/>
	<g>
		<path d="M126.9,7.9h9.1v25.8c0,3.5-0.8,6.1-2.4,7.7c-1.6,1.6-4.2,2.4-7.7,2.4h-11.7c-3.5,0-6.1-0.8-7.7-2.4
			c-1.6-1.6-2.4-4.2-2.4-7.7V7.9h9.1v25.8c0,2,1,3,3,3h7.6c2,0,3-1,3-3V7.9z"/>
		<path d="M173,43.4h-9.6l-12.2-21.3v21.3h-9.1V7.9h9.6l12.2,21.3V7.9h9.1V43.4z"/>
		<path d="M179.1,7.9h21.3c3.5,0,6.1,0.8,7.7,2.4c1.6,1.6,2.4,4.2,2.4,7.7v4.6c0,2.8-0.5,5-1.4,6.5c-0.9,1.6-2.4,2.6-4.4,3.1
			l6.3,11.1h-9.9l-5.8-10.6h-7.1v10.6h-9.1V7.9z M201.4,18.1c0-2-1-3-3-3h-10.1v10.6h10.1c2,0,3-1,3-3V18.1z"/>
		<path d="M243.7,43.4h-28.1V7.9h28.1V15h-19v6.8h14.9V29h-14.9v7.3h19V43.4z"/>
		<path d="M254.1,43.4h-9.9l13.4-35.5h10.1l13.4,35.5h-9.9l-2.3-6.3h-12.7L254.1,43.4z M258.6,30.5h8.1l-4.1-11.9L258.6,30.5z"/>
		<path d="M292.8,36.3h18.5v7.1h-27.6V7.9h9.1V36.3z"/>
	</g>
	<g>
		<path d="M105.7,66c4.8,0.3,8,0.4,9.7,0.4c0.4,0,0.7-0.1,1-0.4c0.2-0.2,0.4-0.6,0.4-1v-2.3h-6c-1.8,0-3.1-0.4-4-1.2
			c-0.8-0.8-1.2-2.1-1.2-4v-0.8c0-1.8,0.4-3.1,1.2-4c0.8-0.8,2.2-1.2,4-1.2h9.1v3.6h-8.1c-1,0-1.6,0.5-1.6,1.6v0.5
			c0,1,0.5,1.6,1.6,1.6h4.7c1.7,0,3,0.4,3.8,1.2c0.8,0.8,1.2,2.1,1.2,3.8v1.3c0,1.7-0.4,3-1.2,3.8c-0.8,0.8-2,1.2-3.8,1.2
			c-0.9,0-1.8,0-2.8-0.1l-2.4-0.1c-1.8-0.1-3.6-0.2-5.5-0.4V66z"/>
		<path d="M140.2,64.8c0,1.8-0.4,3.2-1.2,4c-0.8,0.8-2.2,1.2-4,1.2h-6.5c-1.8,0-3.1-0.4-4-1.2c-0.8-0.8-1.2-2.2-1.2-4v-8.3
			c0-1.8,0.4-3.1,1.2-4c0.8-0.8,2.2-1.2,4-1.2h6.5c1.8,0,3.1,0.4,4,1.2c0.8,0.8,1.2,2.2,1.2,4V64.8z M135.5,56.5
			c0-1-0.5-1.6-1.6-1.6h-4.4c-1,0-1.6,0.5-1.6,1.6v8.3c0,1,0.5,1.6,1.6,1.6h4.4c1,0,1.6-0.5,1.6-1.6V56.5z"/>
		<path d="M147.5,66.1h9.5v3.6h-14.2V51.5h4.7V66.1z"/>
		<path d="M170.5,51.5h4.7v13.3c0,1.8-0.4,3.2-1.2,4c-0.8,0.8-2.1,1.2-4,1.2h-6c-1.8,0-3.2-0.4-4-1.2c-0.8-0.8-1.2-2.2-1.2-4V51.5
			h4.7v13.3c0,1,0.5,1.6,1.6,1.6h3.9c1,0,1.6-0.5,1.6-1.6V51.5z"/>
		<path d="M187.2,69.8h-4.7V55.2H177v-3.6h15.6v3.6h-5.5V69.8z"/>
		<path d="M203.1,69.8h-9.4v-3.6h2.3V55.2h-2.3v-3.6h9.4v3.6h-2.3v10.9h2.3V69.8z"/>
		<path d="M221.9,64.8c0,1.8-0.4,3.2-1.2,4c-0.8,0.8-2.1,1.2-4,1.2h-6.5c-1.8,0-3.1-0.4-4-1.2c-0.8-0.8-1.2-2.2-1.2-4v-8.3
			c0-1.8,0.4-3.1,1.2-4c0.8-0.8,2.1-1.2,4-1.2h6.5c1.8,0,3.1,0.4,4,1.2c0.8,0.8,1.2,2.2,1.2,4V64.8z M217.2,56.5
			c0-1-0.5-1.6-1.6-1.6h-4.4c-1,0-1.6,0.5-1.6,1.6v8.3c0,1,0.5,1.6,1.6,1.6h4.4c1,0,1.6-0.5,1.6-1.6V56.5z"/>
		<path d="M240.4,69.8h-5l-6.3-10.9v10.9h-4.7V51.5h5l6.3,10.9V51.5h4.7V69.8z"/>
		<path d="M242.9,66c4.8,0.3,8,0.4,9.7,0.4c0.4,0,0.7-0.1,1-0.4c0.2-0.2,0.4-0.6,0.4-1v-2.3h-6c-1.8,0-3.1-0.4-4-1.2
			c-0.8-0.8-1.2-2.1-1.2-4v-0.8c0-1.8,0.4-3.1,1.2-4c0.8-0.8,2.1-1.2,4-1.2h9.1v3.6H249c-1,0-1.6,0.5-1.6,1.6v0.5
			c0,1,0.5,1.6,1.6,1.6h4.7c1.7,0,3,0.4,3.8,1.2c0.8,0.8,1.2,2.1,1.2,3.8v1.3c0,1.7-0.4,3-1.2,3.8c-0.8,0.8-2.1,1.2-3.8,1.2
			c-0.9,0-1.8,0-2.8-0.1l-2.4-0.1c-1.8-0.1-3.6-0.2-5.5-0.4V66z"/>
		<path d="M273.5,66.1h9.5v3.6h-14.2V51.5h4.7V66.1z"/>
		<path d="M290.5,69.8h-4.7V55.2h-5.5v-3.6H296v3.6h-5.5V69.8z"/>
		<path d="M308,51.5c2,0,3.5,0.5,4.5,1.5c1,1,1.5,2.5,1.5,4.5v6.3c0,2-0.5,3.5-1.5,4.5s-2.5,1.5-4.5,1.5h-10.2V51.5H308z
			 M309.3,57.5c0-1.6-0.8-2.3-2.3-2.3h-4.4v10.9h4.4c1.6,0,2.3-0.8,2.3-2.3V57.5z"/>
	</g>
</g>
</svg>
