<svg id="Layer_1" data-name="Layer 1" xmlns="http://www.w3.org/2000/svg" viewBox="0 0 7836.42 1288.32"><defs><style>.cls-1{fill:#fff;}</style></defs><path class="cls-1" d="M4169.25,1174.13q-143,0-285.93-.06c-52.82-.1-92.68-23.54-119.06-69q-94.87-163.68-189.13-327.73c-32.27-55.92-64.92-111.63-96.75-167.8-25.74-45.42-25.54-91.49.44-136.79q88.65-154.6,177.9-308.85c36.08-62.56,71.92-125.26,108.5-187.53,22.82-38.84,56.59-62,102.08-66.47,6.6-.65,13.24-1.25,19.85-1.25q284.43-.1,568.85.12c51.63.12,91.67,23,117.74,67.94,56,96.4,111.4,193.15,167.11,289.72Q4800.46,369.73,4860.29,473c12,20.63,18.56,42.82,18.94,66.41.41,25-6.17,48.62-18.8,70.45q-70,121-139.85,242.06c-49.27,85.3-98.25,170.78-147.95,255.82-25.83,44.2-65.48,66.12-116.46,66.33C4360.53,1174.4,4264.89,1174.13,4169.25,1174.13ZM4042.81,864.31c-2.31-4.18-3.95-7.3-5.74-10.34q-88.67-150.66-177.52-301.19c-3.61-6.11-3.35-10.41.14-16.24,19.33-32.27,38.29-64.78,57.37-97.2q60-102,120.05-204a38.91,38.91,0,0,0,4.24-10.84c-2.58-.11-4.89-.31-7.21-.31-32.64,0-65.29.18-97.93-.17-6.6-.07-10.07,2.18-13.34,7.78Q3844.26,366.3,3765.25,500.6q-12.87,21.95-25.66,43.85c1.67,3.11,3,5.79,4.49,8.36Q3833.26,704.9,3922.36,857c3.45,5.92,7.39,8.14,14.26,8.06,32-.35,64-.14,95.93-.18C4035.46,864.9,4038.36,864.58,4042.81,864.31Zm254.33.62h11.56c31.31,0,62.63-.25,93.94.18,7.6.1,11.81-2.17,15.73-8.9q73.44-126,147.51-251.65,17.41-29.68,34.72-59.43c-1.23-2.47-2.13-4.61-3.3-6.6q-90-153.37-179.89-306.78c-3.26-5.58-6.72-7.86-13.34-7.79-32.65.37-65.3.16-97.95.19-2.49,0-5,.31-8.56.55,1.9,3.73,3.08,6.39,4.54,8.87q68.64,116.67,137.33,233.31c13.86,23.53,27.58,47.13,41.68,70.52,3.13,5.19,3.94,9.6,0,14.47a27.94,27.94,0,0,0-2.06,3.42q-88,149.34-175.92,298.69C4301.37,857,4299.75,860.17,4297.14,864.93Z" transform="translate(2957.17 103.69)"/><path class="cls-1" d="M-1840.6,286.4h224.29c.22,3.37.57,6.27.57,9.18,0,171,.74,342-.37,513-.38,57.38-14.09,112.58-39.08,164.7-18.18,37.9-41.76,71.87-71.54,101.5-42.6,42.38-92.92,71.93-150.08,90-54.63,17.3-110.78,22.83-167.6,18.41-77.29-6-147.2-32-206.74-82.82-11.61-9.9-21.94-21.29-32.83-32-2.11-2.08-4.11-4.28-6.85-7.14-3.24,3.52-6,6.65-8.94,9.69q-82,85.61-198.54,107.37c-36.65,6.79-73.54,7.51-110.38,4.93-54.52-3.82-107-16.52-156.06-41.55q-91-46.47-141.19-135.62c-25.75-45.85-40.49-95.27-47.29-147.3-3.07-23.49-4-47-3.94-70.64q.14-244,.05-488V286.58h224.21v13q0,249.48.13,499c0,27.78,4.9,54.9,16.2,80.59,17.59,40,47.36,66.41,89.46,77.75,48.49,13.07,96.33,11.19,141.8-11.88,47-23.85,73.4-63.23,82.46-114.56,1.84-10.4,2.23-21.17,2.24-31.77q.2-249.48.09-499V286.43h225.21c.11,3.65.32,7.48.32,11.31q0,86.49,0,173c0,111-.37,222,.22,333,.19,34,8.33,66.5,26.91,95.78,16.74,26.37,40,44.65,69.37,54.3,47.42,15.58,95.14,15.9,141.4-3.9,53.84-23,84.52-65.08,94-122.54,1.94-11.74,2.35-23.83,2.36-35.77q.23-245.47.1-490.95Z" transform="translate(2957.17 103.69)"/><path class="cls-1" d="M-1208.89,891.79a227.59,227.59,0,0,0,49.7,49.57c34.76,25.17,73.67,39.75,116.49,42.74,47.89,3.35,93.48-5,135.35-29.6,27.51-16.2,49.79-37.76,65.86-65.42,2.91-5,6.27-6.67,12-6.66q112,.27,223.94.15c2.28,0,4.56.34,8.41.64-3.83,11.6-7.08,22.65-11.1,33.42-18,48.23-43.86,91.88-78.58,129.94-46.26,50.68-102.23,86.85-167.06,109.25A485.83,485.83,0,0,1-969.7,1180.3a540.44,540.44,0,0,1-87.76.89,427.4,427.4,0,0,1-150.61-39.59,442.35,442.35,0,0,1-111.86-74.32,458.07,458.07,0,0,1-88.63-110,456.23,456.23,0,0,1-55.88-159.12c-2.84-18.34-3.63-37-4.82-55.57-3.33-52,3.83-102.82,18.69-152.5a458.83,458.83,0,0,1,98.45-176.4c39.75-44.49,86.22-80,139.89-106.1A437.85,437.85,0,0,1-1081,267.83a448.08,448.08,0,0,1,93.58-3.1c57.61,4,112.88,17.81,164.92,43.24a400.28,400.28,0,0,1,96.82,66.35c62.64,58,102.37,129.42,124.54,211.22,3.3,12.18,6,24.54,8.81,36.84.65,2.86.8,5.83,1.28,9.53ZM-1259.35,712l408.53-172.24c-2-2.86-3.08-4.94-4.62-6.62-17.25-18.81-37-34.44-59.8-46-43.32-22.07-89.28-29.6-137.38-23.4-58.66,7.56-107.09,34.38-145.51,79.18-29.94,34.92-47.84,75.7-56.71,120.53C-1257.86,678.64-1260.61,694.05-1259.35,712Z" transform="translate(2957.17 103.69)"/><path class="cls-1" d="M2713.88,631.75,2096.17,891.54c2.24,3.4,3.73,6.25,5.75,8.67,41.92,50.3,95.47,79,160.77,83.89,52.18,3.9,101.32-6.73,145.33-36.49,22.67-15.34,41.27-34.66,54.89-58.44,3-5.14,6.25-6.73,11.87-6.72q112,.21,223.95.12c2.25,0,4.51.38,7.73.66-.76,3.36-1.23,6.22-2.07,9-17.6,57.89-46.08,109.82-86.85,154.51-50.55,55.41-112.49,93.06-184.19,114.74a495.74,495.74,0,0,1-98.73,18.86,533.92,533.92,0,0,1-86.77.91,427.43,427.43,0,0,1-152.48-40.17,444.7,444.7,0,0,1-109.44-72.62A465,465,0,0,1,1835.1,694.54c4-56.53,17-111,40.49-162.71a462.48,462.48,0,0,1,113.69-155.08,439.71,439.71,0,0,1,187.52-100c42.79-10.9,86.39-14.49,130.58-12.39,55.08,2.63,108,14.3,158.53,36.23a400,400,0,0,1,113.86,74.55c61.23,56.9,100.23,126.9,122.71,206.72,3.43,12.16,6.18,24.5,9.1,36.79C2712.5,622.52,2713,626.47,2713.88,631.75ZM2044.5,712.22c137.35-57.87,273.11-115,409.42-172.66-2.58-3.34-4-5.57-5.83-7.49-16.94-18.16-36.15-33.42-58.31-44.72-42.32-21.57-87.12-29.36-134.32-24-61.85,7.05-112.29,35.12-151.83,82.73-27.76,33.42-44.69,72.17-53.29,114.62C2047.05,677,2044.42,693.31,2044.5,712.22Z" transform="translate(2957.17 103.69)"/><path class="cls-1" d="M874.28,631.87,256.49,891.74a212.64,212.64,0,0,0,44,45.28c36,27.74,76.63,43.84,122,47.13,42.58,3.09,83.73-3.31,122.23-22.36,33.24-16.45,60.34-40.08,79-72.56,2.88-5,6-6.81,11.72-6.8q112.46.26,224.92.13c2,0,3.91.22,7.16.41-1.38,5.26-2.36,10-3.85,14.52-18.41,56-46.47,106.49-86.45,150.21-44.51,48.67-98.23,83.28-159.85,105.93-39.53,14.53-80.37,23-122.37,26.7a544.88,544.88,0,0,1-87.75.84c-49.78-3.67-97.59-16.17-143.27-36.53A441.53,441.53,0,0,1,120,1042.36Q30.89,947.21,4.59,819.19a456.71,456.71,0,0,1-9.25-114c3-62.74,17.08-122.93,44.06-179.93a467.14,467.14,0,0,1,71.35-109.09A449.94,449.94,0,0,1,236.61,316a433.87,433.87,0,0,1,126.45-44.7,449.3,449.3,0,0,1,105.24-6.84c42.76,2.11,84.48,9.52,125,23.31,53,18,100.46,45.36,142.15,82.85,46.07,41.43,80.47,91,105.24,147.6,15.28,34.92,25.63,71.28,33.15,108.54C874.1,628,874.08,629.35,874.28,631.87ZM204.77,712.46l410-172.88a171.37,171.37,0,0,0-33.13-32.3C529.31,468,470,454.48,406.25,464.62c-77.6,12.34-133.84,55.94-170.4,125.07-16,30.33-24.94,63-29.07,96.95C205.8,694.68,205.5,702.8,204.77,712.46Z" transform="translate(2957.17 103.69)"/><path class="cls-1" d="M1235.74,1161.56q-165.61-437.68-331.12-875H1140q107.93,324,216.08,648.76l2-.29q109-324.42,217.89-648.63h232q-165.09,438.3-329.64,875.18Z" transform="translate(2957.17 103.69)"/><path class="cls-1" d="M2838.8-103h225.77a64,64,0,0,1,1.07,6.75c.18,3.32.05,6.66.05,10q0,442.5,0,885c0,25.74,2.8,51.2,10.95,75.7,14.27,42.9,44,68.61,88.23,77.84,20,4.18,40.25,4.76,60.58,4.11,1.65,0,3.31-.07,5,0,.26,0,.5.39,1.32,1.09v203.4c-10,.9-19.55,2.46-29.08,2.47q-32.4,0-64.78-1.23c-27.38-1.1-54.13-6.45-80.24-14.57-70.21-21.84-125.28-63.34-163.51-126.63C2869,979.26,2854.06,934,2846.5,886.25c-3.37-21.27-4.83-42.89-6.22-64.41-1.19-18.57-1.42-37.23-1.42-55.85q-.12-427.5-.06-855Z" transform="translate(2957.17 103.69)"/><path class="cls-1" d="M-72.51,957.33v202.94c-2,.38-4.16,1-6.35,1.17-25.53,2.37-51.12,3.57-76.73,2-67.44-4.22-130.35-21.83-184.91-63.62-32.5-24.89-57.84-55.82-77.24-91.7-24.55-45.41-37.76-94.25-43.76-145.3a610.33,610.33,0,0,1-4-71.64q.06-440,0-880v-12.74c7.46-2.3,210.3-3,226.21-.78V353q0,222,.17,444c.06,23.89,2.52,47.7,9.25,70.94,13.38,46.23,43.21,74.44,90.38,84.36,20,4.22,40.25,4.7,60.58,4.08,1.64,0,3.29,0,4.93.09C-73.65,956.47-73.39,956.78-72.51,957.33Z" transform="translate(2957.17 103.69)"/></svg>
