<svg xmlns="http://www.w3.org/2000/svg" style="display: none;">
    <symbol id="Logo" viewBox="0 0 454.87 76.32">

        <path fill="currentColor"
              d="M36.77,36.32A13.74,13.74,0,1,0,50.51,50.06,13.74,13.74,0,0,0,36.77,36.32Zm0,22A8.25,8.25,0,1,1,45,50.06,8.26,8.26,0,0,1,36.77,58.31Z"
              transform="translate(-23.03 -12.27)"/>
        <rect fill="currentColor" x="87.95" y="24.05" width="5.5" height="27.48" rx="0.4"/>
        <path fill="currentColor"
              d="M170.47,63.8h-4.72a.67.67,0,0,1-.65-.46l-6.75-19.28a.69.69,0,0,0-1.3,0L150.3,63.34a.67.67,0,0,1-.65.46h-4.72a.68.68,0,0,1-.65-.91L152,40.72l.32-.93a5.85,5.85,0,0,1,3.4-3.14,5.65,5.65,0,0,1,1.94-.33,5.75,5.75,0,0,1,2,.33A5.86,5.86,0,0,1,163,39.79l.32.93,7.76,22.17A.68.68,0,0,1,170.47,63.8Z"
              transform="translate(-23.03 -12.27)"/>
        <path fill="currentColor"
              d="M196.18,59v4.13a.69.69,0,0,1-.69.68H182.44a8.24,8.24,0,0,1-8.25-8.24V37a.69.69,0,0,1,.69-.68H179a.69.69,0,0,1,.69.68V55.56a2.75,2.75,0,0,0,2.75,2.75h13.05A.68.68,0,0,1,196.18,59Z"
              transform="translate(-23.03 -12.27)"/>
        <path fill="currentColor"
              d="M144,37v4.13a.68.68,0,0,1-.69.68H136.4a.69.69,0,0,0-.69.69V63.12a.68.68,0,0,1-.68.68H130.9a.68.68,0,0,1-.68-.68V42.5a.69.69,0,0,0-.69-.69h-6.87a.68.68,0,0,1-.69-.68V37a.69.69,0,0,1,.69-.68h20.61A.69.69,0,0,1,144,37Z"
              transform="translate(-23.03 -12.27)"/>
        <path fill="currentColor"
              d="M103.73,50.48A8.23,8.23,0,0,1,105.47,56a8.35,8.35,0,0,1-8.4,7.83H84.18a.69.69,0,0,1-.69-.68V59a.68.68,0,0,1,.69-.68h13A2.83,2.83,0,0,0,100,55.74a2.76,2.76,0,0,0-2.75-2.93h-13a.69.69,0,0,1-.69-.69V48a.69.69,0,0,1,.69-.69h13A2.82,2.82,0,0,0,100,44.74a2.76,2.76,0,0,0-2.75-2.93h-13a.68.68,0,0,1-.69-.68V37a.69.69,0,0,1,.69-.68H97.07a8.35,8.35,0,0,1,8.4,7.83,8.23,8.23,0,0,1-1.74,5.49A.66.66,0,0,0,103.73,50.48Z"
              transform="translate(-23.03 -12.27)"/>
        <path fill="currentColor"
              d="M77,63.8H72.3a.69.69,0,0,1-.65-.46L68.12,53.27a.67.67,0,0,0-.64-.46H62.19a.69.69,0,0,0-.69.69v9.62a.68.68,0,0,1-.68.68H56.69a.68.68,0,0,1-.68-.68V48a.68.68,0,0,1,.68-.69h13a2.8,2.8,0,0,0,2.83-2.57,2.75,2.75,0,0,0-2.74-2.93H56.69a.67.67,0,0,1-.68-.68V37a.68.68,0,0,1,.68-.68H69.75a8.25,8.25,0,0,1,5.5,14.39,9.29,9.29,0,0,1-1,.77.68.68,0,0,0-.28.8l3.72,10.61A.69.69,0,0,1,77,63.8Z"
              transform="translate(-23.03 -12.27)"/>
        <path fill="currentColor"
              d="M283.58,46.78,269,61.36a1.72,1.72,0,0,1-2.43,0h0a1.72,1.72,0,0,1,0-2.43l14.58-14.58a1.72,1.72,0,0,0,0-2.43l-2.43-2.43a1.72,1.72,0,0,0-2.43,0L261.71,54.07a1.71,1.71,0,0,1-2.42,0l-2.43-2.43a1.7,1.7,0,0,1,0-2.43l2.43-2.43a1.71,1.71,0,0,1,2.42,0h0a1.72,1.72,0,0,0,2.43,0L269,41.92a1.72,1.72,0,0,0,0-2.43l-7.29-7.28a1.71,1.71,0,0,0-2.42,0l-4.86,4.85a1.72,1.72,0,0,0,0,2.43h0a1.72,1.72,0,0,1,0,2.43L252,44.35a1.72,1.72,0,0,1-2.43,0l-2.43-2.43a1.72,1.72,0,0,1,0-2.43l14.57-14.57a1.7,1.7,0,0,0,0-2.43l-2.42-2.43a1.72,1.72,0,0,0-2.43,0L242.28,34.64a1.72,1.72,0,0,1-2.43,0h0a1.72,1.72,0,0,1,0-2.43l14.58-14.58a1.72,1.72,0,0,0,0-2.43L252,12.77a1.72,1.72,0,0,0-2.43,0L233.78,28.56l-4.86,4.86L213.13,49.21a1.72,1.72,0,0,0,0,2.43l2.43,2.43a1.72,1.72,0,0,0,2.43,0l14.57-14.58a1.72,1.72,0,0,1,2.43,0h0a1.72,1.72,0,0,1,0,2.43L220.42,56.5a1.7,1.7,0,0,0,0,2.43l2.43,2.43a1.71,1.71,0,0,0,2.42,0l14.58-14.58a1.72,1.72,0,0,1,2.43,0l2.43,2.43a1.72,1.72,0,0,1,0,2.43l-2.43,2.43a1.72,1.72,0,0,1-2.43,0h0a1.72,1.72,0,0,0-2.43,0l-4.86,4.86a1.72,1.72,0,0,0,0,2.43l7.29,7.29a1.72,1.72,0,0,0,2.43,0l4.86-4.86a1.72,1.72,0,0,0,0-2.43h0a1.72,1.72,0,0,1,0-2.43l2.43-2.43a1.72,1.72,0,0,1,2.43,0l2.43,2.43a1.72,1.72,0,0,1,0,2.43L239.85,75.93a1.72,1.72,0,0,0,0,2.43l2.43,2.43a1.72,1.72,0,0,0,2.43,0l14.58-14.57a1.71,1.71,0,0,1,2.42,0h0a1.7,1.7,0,0,1,0,2.43L247.14,83.22a1.72,1.72,0,0,0,0,2.43l2.43,2.43a1.72,1.72,0,0,0,2.43,0l15.79-15.79,4.86-4.86,15.79-15.79a1.72,1.72,0,0,0,0-2.43L286,46.78A1.72,1.72,0,0,0,283.58,46.78Z"
              transform="translate(-23.03 -12.27)"/>
        <path fill="currentColor"
              d="M336.11,42.33V63.12a.67.67,0,0,1-.68.68h-4.09a.67.67,0,0,1-.68-.68V45.42a.69.69,0,0,0-1.33-.23l-2.6,7.43-.32.92A5.74,5.74,0,0,1,323,56.65a5.62,5.62,0,0,1-3.85,0,5.74,5.74,0,0,1-3.37-3.11l-.32-.92-2.6-7.43a.69.69,0,0,0-1.33.23v17.7a.67.67,0,0,1-.68.68H306.8a.67.67,0,0,1-.68-.68V42.33A5.78,5.78,0,0,1,310,36.87a5.62,5.62,0,0,1,1.59-.32h.34a5.78,5.78,0,0,1,5.3,3.44l.32.92,2.94,8.4a.68.68,0,0,0,1.29,0l2.94-8.4L325,40a5.78,5.78,0,0,1,5.3-3.44h.34a5.62,5.62,0,0,1,1.59.32A5.78,5.78,0,0,1,336.11,42.33Z"
              transform="translate(-23.03 -12.27)"/>
        <path fill="currentColor"
              d="M450.63,41.31V37.22a.67.67,0,0,0-.68-.68H429.5a.67.67,0,0,0-.68.68v25.9a.67.67,0,0,0,.68.68H450a.67.67,0,0,0,.68-.68V59a.67.67,0,0,0-.68-.68H435a.69.69,0,0,1-.68-.68V53.58a.68.68,0,0,1,.68-.68h15a.68.68,0,0,0,.68-.69V48.12a.68.68,0,0,0-.68-.68H435a.68.68,0,0,1-.68-.68V42.67A.68.68,0,0,1,435,42h15A.68.68,0,0,0,450.63,41.31Z"
              transform="translate(-23.03 -12.27)"/>
        <path fill="currentColor"
              d="M367.47,63.8h-4.69a.69.69,0,0,1-.65-.45l-6.69-19.13a.68.68,0,0,0-1.29,0l-6.69,19.13a.69.69,0,0,1-.65.45h-4.69a.67.67,0,0,1-.64-.9l7.7-22,.32-.92a5.74,5.74,0,0,1,3.37-3.11,5.78,5.78,0,0,1,3.85,0A5.74,5.74,0,0,1,360.09,40l.32.92,7.7,22A.67.67,0,0,1,367.47,63.8Z"
              transform="translate(-23.03 -12.27)"/>
        <path fill="currentColor"
              d="M477.9,37.22v4.09a.69.69,0,0,1-.68.68H470.4a.67.67,0,0,0-.68.68V63.12a.68.68,0,0,1-.68.68H465a.68.68,0,0,1-.69-.68V42.67a.67.67,0,0,0-.68-.68h-6.81a.69.69,0,0,1-.69-.68V37.22a.68.68,0,0,1,.69-.68h20.45A.68.68,0,0,1,477.9,37.22Z"
              transform="translate(-23.03 -12.27)"/>
        <path fill="currentColor"
              d="M395.14,63.8h-4.69a.69.69,0,0,1-.65-.45l-3.49-10a.69.69,0,0,0-.65-.45h-5.24a.67.67,0,0,0-.68.68v9.54a.68.68,0,0,1-.68.68H375a.68.68,0,0,1-.69-.68v-15a.69.69,0,0,1,.69-.68h12.86a2.78,2.78,0,0,0,2.81-2.54A2.73,2.73,0,0,0,387.92,42H375a.69.69,0,0,1-.69-.68V37.22a.68.68,0,0,1,.69-.68h12.95a8.17,8.17,0,0,1,5.45,14.27,8.31,8.31,0,0,1-1,.77.67.67,0,0,0-.27.79l3.68,10.53A.67.67,0,0,1,395.14,63.8Z"
              transform="translate(-23.03 -12.27)"/>
        <path fill="currentColor"
              d="M420.62,56l2.43,6.93a.68.68,0,0,1-.65.9h-4.69a.68.68,0,0,1-.64-.45l-2-5.76a5.32,5.32,0,0,0-.41-1.18,6.16,6.16,0,0,0-3.74-3.27,5.19,5.19,0,0,0-1.12-.24h-2.09a.68.68,0,0,0-.69.68v9.54a.67.67,0,0,1-.68.68h-4.09a.68.68,0,0,1-.68-.68V37.22a.68.68,0,0,1,.68-.68h4.09a.67.67,0,0,1,.68.68v9.54a.68.68,0,0,0,.69.68h2.07a5.37,5.37,0,0,0,1.14-.24,6.15,6.15,0,0,0,3.74-3.28,5.24,5.24,0,0,0,.41-1.17l2-5.76a.68.68,0,0,1,.64-.45h4.69a.68.68,0,0,1,.65.9l-2.43,6.92L420,46.14a11.37,11.37,0,0,1-.67,1.3,22.5,22.5,0,0,1-2.23,2.73,12.29,12.29,0,0,1,2.9,4Z"
              transform="translate(-23.03 -12.27)"/>
    </symbol>
</svg>
