<svg xmlns="http://www.w3.org/2000/svg" style="display: none;">
    <symbol id="Logo" viewBox="0 0 264 16">
        <path fill="currentColor"
              d="M15.52,7.16a8,8,0,1,0,8,8A8,8,0,0,0,15.52,7.16Zm0,12.8a4.8,4.8,0,1,1,4.8-4.8A4.8,4.8,0,0,1,15.52,20Z"
              transform="translate(-7.52 -7.16)"/>
        <rect fill="currentColor" x="51.2" width="3.2" height="16" rx="0.4"/>
        <path fill="currentColor" d="M93.36,23.16H90.61a.41.41,0,0,1-.38-.27L86.3,11.67a.4.4,0,0,0-.75,0L81.62,22.89a.41.41,0,0,1-.38.27H78.49a.4.4,0,0,1-.38-.53L82.63,9.72l.19-.54a3.38,3.38,0,0,1,2-1.83,3.49,3.49,0,0,1,2.27,0,3.38,3.38,0,0,1,2,1.83l.19.54,4.52,12.91A.4.4,0,0,1,93.36,23.16Z"
              transform="translate(-7.52 -7.16)"/>
        <path fill="currentColor" d="M108.32,20.36v2.4a.4.4,0,0,1-.4.4h-7.6a4.8,4.8,0,0,1-4.8-4.8V7.56a.4.4,0,0,1,.4-.4h2.4a.4.4,0,0,1,.4.4v10.8a1.6,1.6,0,0,0,1.6,1.6h7.6A.4.4,0,0,1,108.32,20.36Z"
              transform="translate(-7.52 -7.16)"/>
        <path fill="currentColor" d="M77.92,7.56V10a.4.4,0,0,1-.4.4h-4a.4.4,0,0,0-.4.4v12a.4.4,0,0,1-.4.4h-2.4a.4.4,0,0,1-.4-.4v-12a.4.4,0,0,0-.4-.4h-4a.4.4,0,0,1-.4-.4V7.56a.4.4,0,0,1,.4-.4h12A.4.4,0,0,1,77.92,7.56Z"
              transform="translate(-7.52 -7.16)"/>
        <path fill="currentColor" d="M54.5,15.4a4.77,4.77,0,0,1,1,3.2,4.87,4.87,0,0,1-4.89,4.56H43.12a.4.4,0,0,1-.4-.4v-2.4a.4.4,0,0,1,.4-.4h7.55a1.63,1.63,0,0,0,1.65-1.49,1.6,1.6,0,0,0-1.6-1.71h-7.6a.4.4,0,0,1-.4-.4V14a.4.4,0,0,1,.4-.4h7.55a1.63,1.63,0,0,0,1.65-1.49,1.6,1.6,0,0,0-1.6-1.71h-7.6a.4.4,0,0,1-.4-.4V7.56a.4.4,0,0,1,.4-.4h7.51a4.87,4.87,0,0,1,4.89,4.56,4.77,4.77,0,0,1-1,3.2A.39.39,0,0,0,54.5,15.4Z"
              transform="translate(-7.52 -7.16)"/>
        <path fill="currentColor" d="M39,23.16H36.21a.41.41,0,0,1-.38-.27l-2-5.86a.41.41,0,0,0-.38-.27H30.32a.4.4,0,0,0-.4.4v5.6a.4.4,0,0,1-.4.4h-2.4a.4.4,0,0,1-.4-.4V14a.4.4,0,0,1,.4-.4h7.55a1.63,1.63,0,0,0,1.65-1.49,1.6,1.6,0,0,0-1.6-1.71h-7.6a.4.4,0,0,1-.4-.4V7.56a.4.4,0,0,1,.4-.4h7.6a4.8,4.8,0,0,1,3.2,8.38,4.92,4.92,0,0,1-.58.44.4.4,0,0,0-.16.47l2.16,6.18A.4.4,0,0,1,39,23.16Z"
              transform="translate(-7.52 -7.16)"/>
        <path fill="currentColor" d="M189.78,10.66v12.1a.39.39,0,0,1-.39.4H187a.4.4,0,0,1-.4-.4V12.46a.4.4,0,0,0-.77-.13l-1.52,4.32-.18.53a3.41,3.41,0,0,1-2,1.82,3.43,3.43,0,0,1-2.25,0,3.35,3.35,0,0,1-2-1.82l-.19-.53-1.51-4.32a.4.4,0,0,0-.77.13v10.3a.4.4,0,0,1-.4.4h-2.38a.4.4,0,0,1-.4-.4V10.66a3.37,3.37,0,0,1,2.25-3.18,3.28,3.28,0,0,1,.93-.19h.2a3.37,3.37,0,0,1,3.08,2l.19.54,1.71,4.89a.4.4,0,0,0,.75,0l1.71-4.89.19-.54a3.36,3.36,0,0,1,3.08-2h.2a3.14,3.14,0,0,1,.92.19A3.36,3.36,0,0,1,189.78,10.66Z"
              transform="translate(-7.52 -7.16)"/>
        <path fill="currentColor" d="M256.45,10.06V7.68a.39.39,0,0,0-.4-.39h-11.9a.39.39,0,0,0-.4.39V22.76a.4.4,0,0,0,.4.4h11.9a.4.4,0,0,0,.4-.4V20.38a.4.4,0,0,0-.4-.4h-8.73a.38.38,0,0,1-.39-.39V17.21a.39.39,0,0,1,.39-.4h8.73a.4.4,0,0,0,.4-.4V14a.39.39,0,0,0-.4-.39h-8.73a.39.39,0,0,1-.39-.4V10.86a.39.39,0,0,1,.39-.4h8.73A.4.4,0,0,0,256.45,10.06Z"
              transform="translate(-7.52 -7.16)"/>
        <path fill="currentColor" d="M208,23.16h-2.73a.41.41,0,0,1-.38-.27L201,11.76a.39.39,0,0,0-.74,0l-3.9,11.13a.41.41,0,0,1-.38.27h-2.73a.4.4,0,0,1-.37-.53l4.48-12.8.19-.54a3.36,3.36,0,0,1,2-1.81,3.21,3.21,0,0,1,1.12-.19,3.18,3.18,0,0,1,1.12.19,3.36,3.36,0,0,1,2,1.81l.19.54,4.48,12.8A.4.4,0,0,1,208,23.16Z"
              transform="translate(-7.52 -7.16)"/>
        <path fill="currentColor" d="M272.32,7.68v2.38a.39.39,0,0,1-.39.4h-4a.4.4,0,0,0-.4.4v11.9a.4.4,0,0,1-.4.4h-2.38a.39.39,0,0,1-.39-.4V10.86a.4.4,0,0,0-.4-.4h-4a.39.39,0,0,1-.39-.4V7.68a.38.38,0,0,1,.39-.39h11.91A.38.38,0,0,1,272.32,7.68Z"
              transform="translate(-7.52 -7.16)"/>
        <path fill="currentColor" d="M224.15,23.16h-2.74a.41.41,0,0,1-.37-.27l-2-5.81a.39.39,0,0,0-.37-.27h-3a.4.4,0,0,0-.4.4v5.55a.4.4,0,0,1-.4.4H212.4a.39.39,0,0,1-.39-.4V14a.38.38,0,0,1,.39-.39h7.49a1.63,1.63,0,0,0,1.64-1.49,1.59,1.59,0,0,0-1.59-1.69H212.4a.39.39,0,0,1-.39-.4V7.68a.38.38,0,0,1,.39-.39h7.54a4.77,4.77,0,0,1,3.18,8.31,4.92,4.92,0,0,1-.58.44.39.39,0,0,0-.16.46l2.14,6.13A.4.4,0,0,1,224.15,23.16Z"
              transform="translate(-7.52 -7.16)"/>
        <path fill="currentColor" d="M239,18.6l1.41,4a.4.4,0,0,1-.37.53h-2.73a.41.41,0,0,1-.38-.27l-1.17-3.35a3.64,3.64,0,0,0-.24-.68A3.56,3.56,0,0,0,233.32,17a3.41,3.41,0,0,0-.65-.14h-1.22a.4.4,0,0,0-.4.4v5.55a.39.39,0,0,1-.39.4h-2.38a.4.4,0,0,1-.4-.4V7.68a.39.39,0,0,1,.4-.39h2.38a.38.38,0,0,1,.39.39v5.56a.4.4,0,0,0,.4.4h1.21a3.52,3.52,0,0,0,.66-.15,3.58,3.58,0,0,0,2.18-1.9,4.23,4.23,0,0,0,.24-.68l1.17-3.36a.4.4,0,0,1,.38-.26H240a.39.39,0,0,1,.37.52l-1.41,4-.36,1a7.79,7.79,0,0,1-.39.76,12.54,12.54,0,0,1-1.3,1.58,6.86,6.86,0,0,1,1.3,1.59q.21.36.39.75Z"
              transform="translate(-7.52 -7.16)"/>
    </symbol>
</svg>
