<svg xmlns="http://www.w3.org/2000/svg" style="display: none;">
    <symbol id="Logo" viewBox="0 0 45 45">
        <path fill="currentColor"
              d="M51.47,30,43,38.47a1,1,0,0,1-1.42,0h0a1,1,0,0,1,0-1.42l8.49-8.48a1,1,0,0,0,0-1.42l-1.41-1.41a1,1,0,0,0-1.42,0l-8.48,8.49a1,1,0,0,1-1.42,0l-1.41-1.42a1,1,0,0,1,0-1.41L37.33,30a1,1,0,0,1,1.42,0h0a1,1,0,0,0,1.41,0L43,27.15a1,1,0,0,0,0-1.41L38.75,21.5a1,1,0,0,0-1.42,0L34.5,24.33a1,1,0,0,0,0,1.41h0a1,1,0,0,1,0,1.41l-1.41,1.42a1,1,0,0,1-1.42,0l-1.41-1.42a1,1,0,0,1,0-1.41l8.49-8.48a1,1,0,0,0,0-1.42l-1.42-1.41a1,1,0,0,0-1.41,0l-8.49,8.48a1,1,0,0,1-1.41,0h0a1,1,0,0,1,0-1.41L34.5,13a1,1,0,0,0,0-1.41l-1.41-1.42a1,1,0,0,0-1.42,0l-9.19,9.2L19.65,22.2l-9.19,9.2a1,1,0,0,0,0,1.41l1.42,1.42a1,1,0,0,0,1.41,0l8.49-8.49a1,1,0,0,1,1.41,0h0a1,1,0,0,1,0,1.41L14.7,35.64a1,1,0,0,0,0,1.41l1.42,1.42a1,1,0,0,0,1.41,0L26,30a1,1,0,0,1,1.41,0l1.42,1.42a1,1,0,0,1,0,1.41l-1.42,1.42a1,1,0,0,1-1.41,0h0a1,1,0,0,0-1.42,0l-2.82,2.82a1,1,0,0,0,0,1.42L26,42.71a1,1,0,0,0,1.41,0l2.83-2.83a1,1,0,0,0,0-1.41h0a1,1,0,0,1,0-1.42l1.41-1.41a1,1,0,0,1,1.42,0l1.41,1.41a1,1,0,0,1,0,1.42L26,47a1,1,0,0,0,0,1.42l1.41,1.41a1,1,0,0,0,1.42,0l8.48-8.48a1,1,0,0,1,1.42,0h0a1,1,0,0,1,0,1.41L30.26,51.2a1,1,0,0,0,0,1.41L31.67,54a1,1,0,0,0,1.42,0l9.19-9.19L45.11,42l9.19-9.19a1,1,0,0,0,0-1.41L52.89,30A1,1,0,0,0,51.47,30Z"
              transform="translate(-10.17 -9.89)"/>
    </symbol>
</svg>
