<svg xmlns="http://www.w3.org/2000/svg" style="fill: #ffffff;" viewBox="0 0 2000 2000">
    <circle cx="724" cy="1382" r="2"/>
    <circle cx="803" cy="1283" r="2"/>
    <circle cx="66" cy="325" r="2"/>
    <circle cx="1843" cy="942" r="2"/>
    <circle cx="200" cy="1732" r="2"/>
    <circle cx="1067" cy="1133" r="2"/>
    <circle cx="845" cy="1873" r="2"/>
    <circle cx="401" cy="1933" r="2"/>
    <circle cx="97" cy="927" r="2"/>
    <circle cx="1189" cy="1464" r="2"/>
    <circle cx="1480" cy="813" r="2"/>
    <circle cx="1122" cy="881" r="2"/>
    <circle cx="820" cy="1858" r="2"/>
    <circle cx="10" cy="615" r="2"/>
    <circle cx="1754" cy="870" r="2"/>
    <circle cx="732" cy="1915" r="2"/>
    <circle cx="1693" cy="179" r="2"/>
    <circle cx="665" cy="774" r="2"/>
    <circle cx="1042" cy="194" r="2"/>
    <circle cx="1898" cy="270" r="2"/>
    <circle cx="1498" cy="1067" r="2"/>
    <circle cx="1563" cy="426" r="2"/>
    <circle cx="230" cy="1990" r="2"/>
    <circle cx="576" cy="1606" r="2"/>
    <circle cx="1764" cy="1726" r="2"/>
    <circle cx="111" cy="549" r="2"/>
    <circle cx="375" cy="902" r="2"/>
    <circle cx="117" cy="1078" r="2"/>
    <circle cx="806" cy="1650" r="2"/>
    <circle cx="1192" cy="558" r="2"/>
    <circle cx="121" cy="1147" r="2"/>
    <circle cx="118" cy="159" r="2"/>
    <circle cx="513" cy="624" r="2"/>
    <circle cx="389" cy="2" r="2"/>
    <circle cx="1863" cy="397" r="2"/>
    <circle cx="20" cy="1208" r="2"/>
    <circle cx="1888" cy="489" r="2"/>
    <circle cx="1966" cy="2" r="2"/>
    <circle cx="661" cy="1410" r="2"/>
    <circle cx="1463" cy="1789" r="2"/>
    <circle cx="1339" cy="643" r="2"/>
    <circle cx="1590" cy="453" r="2"/>
    <circle cx="1902" cy="1415" r="2"/>
    <circle cx="1386" cy="746" r="2"/>
    <circle cx="1714" cy="1304" r="2"/>
    <circle cx="1811" cy="981" r="2"/>
    <circle cx="1719" cy="1247" r="2"/>
    <circle cx="1882" cy="18" r="2"/>
    <circle cx="93" cy="516" r="2"/>
    <circle cx="287" cy="1613" r="2"/>
    <circle cx="149" cy="222" r="2"/>
    <circle cx="793" cy="212" r="2"/>
    <circle cx="326" cy="906" r="2"/>
    <circle cx="759" cy="1237" r="2"/>
    <circle cx="1053" cy="780" r="2"/>
    <circle cx="1067" cy="1925" r="2"/>
    <circle cx="323" cy="193" r="2"/>
    <circle cx="781" cy="1799" r="2"/>
    <circle cx="774" cy="860" r="2"/>
    <circle cx="857" cy="811" r="2"/>
    <circle cx="93" cy="1445" r="2"/>
    <circle cx="195" cy="242" r="2"/>
    <circle cx="1557" cy="36" r="2"/>
    <circle cx="374" cy="401" r="2"/>
</svg>
