<?xml version="1.0" encoding="utf-8"?>
<svg version="1.1" id="Favicon" xmlns="http://www.w3.org/2000/svg" xmlns:xlink="http://www.w3.org/1999/xlink" x="0px"
     y="0px"
     viewBox="0 0 64 64" style="enable-background:new 0 0 64 64;" xml:space="preserve">
<style type="text/css">
	.st0{fill:#000000;}
	@media (prefers-color-scheme: dark) {
            .st0 {fill:#ffffff;}
        }
</style>
    <path class="st0" d="M58.47,29.21,46.88,40.8a1.38,1.38,0,0,1-1.94,0h0a1.37,1.37,0,0,1,0-1.93l11.6-11.6a1.37,1.37,0,0,0,0-1.93l-1.93-1.93a1.36,1.36,0,0,0-1.94,0L41.08,35a1.35,1.35,0,0,1-1.93,0l-1.94-1.93a1.37,1.37,0,0,1,0-1.93l1.94-1.93a1.35,1.35,0,0,1,1.93,0h0a1.37,1.37,0,0,0,1.93,0l3.87-3.87a1.37,1.37,0,0,0,0-1.93l-5.8-5.8a1.37,1.37,0,0,0-1.93,0l-3.87,3.87a1.37,1.37,0,0,0,0,1.93h0a1.37,1.37,0,0,1,0,1.93l-1.93,1.93a1.35,1.35,0,0,1-1.93,0l-1.94-1.93a1.37,1.37,0,0,1,0-1.93l11.6-11.6a1.37,1.37,0,0,0,0-1.93L39.15,8a1.36,1.36,0,0,0-1.94,0L25.62,19.54a1.35,1.35,0,0,1-1.93,0h0a1.35,1.35,0,0,1,0-1.93L35.28,6a1.37,1.37,0,0,0,0-1.93L33.35,2.15a1.37,1.37,0,0,0-1.93,0L18.85,14.71,15,18.58,2.43,31.14a1.35,1.35,0,0,0,0,1.93L4.36,35a1.35,1.35,0,0,0,1.93,0l11.6-11.59a1.35,1.35,0,0,1,1.93,0h0a1.37,1.37,0,0,1,0,1.93L8.22,36.94a1.37,1.37,0,0,0,0,1.93l1.94,1.93a1.37,1.37,0,0,0,1.93,0l11.6-11.59a1.35,1.35,0,0,1,1.93,0l1.93,1.93a1.37,1.37,0,0,1,0,1.93L25.62,35a1.35,1.35,0,0,1-1.93,0h0a1.38,1.38,0,0,0-1.94,0l-3.86,3.87a1.35,1.35,0,0,0,0,1.93l5.8,5.8a1.37,1.37,0,0,0,1.93,0l3.86-3.87a1.35,1.35,0,0,0,0-1.93h0a1.37,1.37,0,0,1,0-1.93l1.94-1.93a1.35,1.35,0,0,1,1.93,0l1.93,1.93a1.37,1.37,0,0,1,0,1.93L23.69,52.4a1.35,1.35,0,0,0,0,1.93l1.93,1.93a1.37,1.37,0,0,0,1.93,0l11.6-11.59a1.35,1.35,0,0,1,1.93,0h0a1.37,1.37,0,0,1,0,1.93L29.48,58.19a1.38,1.38,0,0,0,0,1.94l1.94,1.93a1.37,1.37,0,0,0,1.93,0L45.91,49.5l3.86-3.87L62.34,33.07a1.37,1.37,0,0,0,0-1.93L60.4,29.21A1.35,1.35,0,0,0,58.47,29.21Z"/>
</svg>
